STARTFONT 2.1
COMMENT $XConsortium: lutRS10.bdf,v 1.8 94/04/02 16:25:55 gildea Exp $
FONT -B&H-LucidaTypewriter-Medium-R-Normal-Sans-14-100-100-100-M-80-ISO8859-1
SIZE 10 100 100
FONTBOUNDINGBOX 9 16 4 -3
STARTPROPERTIES 20
FONTNAME_REGISTRY ""
FOUNDRY "B&H"
FAMILY_NAME "LucidaTypewriter"
WEIGHT_NAME "Medium"
SLANT "R"
SETWIDTH_NAME "Normal"
ADD_STYLE_NAME "Sans"
PIXEL_SIZE 14
POINT_SIZE 100
RESOLUTION_X 100
RESOLUTION_Y 100
SPACING "M"
AVERAGE_WIDTH 80
CHARSET_REGISTRY "ISO8859"
CHARSET_ENCODING "1"
FONT_ASCENT 13
FONT_DESCENT 3
DEFAULT_CHAR 0
COPYRIGHT "Copyright Bigelow & Holmes 1986, 1985."
FACE_NAME "Lucida Sans Typewriter"
ENDPROPERTIES
CHARS 190
STARTCHAR space
ENCODING 32
SWIDTH 602 0
DWIDTH 8 0
BBX 1 1 0 0
BITMAP
00
ENDCHAR
STARTCHAR exclam
ENCODING 33
SWIDTH 602 0
DWIDTH 8 0
BBX 1 10 4 0
BITMAP
80
80
80
80
80
80
80
00
00
80
ENDCHAR
STARTCHAR quotedbl
ENCODING 34
SWIDTH 602 0
DWIDTH 8 0
BBX 4 3 2 7
BITMAP
90
90
90
ENDCHAR
STARTCHAR numbersign
ENCODING 35
SWIDTH 602 0
DWIDTH 8 0
BBX 8 10 0 0
BITMAP
12
12
16
7f
24
24
fe
68
48
48
ENDCHAR
STARTCHAR dollar
ENCODING 36
SWIDTH 602 0
DWIDTH 8 0
BBX 5 12 2 -1
BITMAP
20
78
a0
a0
e0
60
30
28
28
a8
f0
20
ENDCHAR
STARTCHAR percent
ENCODING 37
SWIDTH 602 0
DWIDTH 8 0
BBX 8 10 0 0
BITMAP
61
92
94
9c
68
10
36
29
49
86
ENDCHAR
STARTCHAR ampersand
ENCODING 38
SWIDTH 602 0
DWIDTH 8 0
BBX 9 10 0 0
BITMAP
1c00
2200
2200
3c00
7000
d880
8c80
8780
c300
3d80
ENDCHAR
STARTCHAR quoteright
ENCODING 39
SWIDTH 602 0
DWIDTH 8 0
BBX 2 4 3 6
BITMAP
c0
c0
40
c0
ENDCHAR
STARTCHAR parenleft
ENCODING 40
SWIDTH 602 0
DWIDTH 8 0
BBX 5 13 2 -3
BITMAP
18
30
40
c0
80
80
80
80
80
40
40
20
18
ENDCHAR
STARTCHAR parenright
ENCODING 41
SWIDTH 602 0
DWIDTH 8 0
BBX 5 13 1 -3
BITMAP
c0
60
10
10
08
08
08
08
08
10
10
20
c0
ENDCHAR
STARTCHAR asterisk
ENCODING 42
SWIDTH 602 0
DWIDTH 8 0
BBX 6 6 1 4
BITMAP
30
b4
cc
28
78
48
ENDCHAR
STARTCHAR plus
ENCODING 43
SWIDTH 602 0
DWIDTH 8 0
BBX 7 7 1 0
BITMAP
10
10
10
fe
10
10
10
ENDCHAR
STARTCHAR comma
ENCODING 44
SWIDTH 602 0
DWIDTH 8 0
BBX 2 5 3 -3
BITMAP
c0
c0
40
40
80
ENDCHAR
STARTCHAR minus
ENCODING 45
SWIDTH 602 0
DWIDTH 8 0
BBX 7 1 1 3
BITMAP
fe
ENDCHAR
STARTCHAR period
ENCODING 46
SWIDTH 602 0
DWIDTH 8 0
BBX 2 1 3 0
BITMAP
c0
ENDCHAR
STARTCHAR slash
ENCODING 47
SWIDTH 602 0
DWIDTH 8 0
BBX 7 13 1 -3
BITMAP
02
04
04
08
08
10
10
10
20
20
40
40
80
ENDCHAR
STARTCHAR zero
ENCODING 48
SWIDTH 602 0
DWIDTH 8 0
BBX 7 10 1 0
BITMAP
38
44
82
82
82
82
82
82
44
38
ENDCHAR
STARTCHAR one
ENCODING 49
SWIDTH 602 0
DWIDTH 8 0
BBX 7 10 1 0
BITMAP
30
f0
10
10
10
10
10
10
10
fe
ENDCHAR
STARTCHAR two
ENCODING 50
SWIDTH 602 0
DWIDTH 8 0
BBX 5 10 2 0
BITMAP
f0
88
08
08
18
30
20
40
c0
f8
ENDCHAR
STARTCHAR three
ENCODING 51
SWIDTH 602 0
DWIDTH 8 0
BBX 5 10 2 0
BITMAP
f0
88
08
08
70
18
08
08
18
f0
ENDCHAR
STARTCHAR four
ENCODING 52
SWIDTH 602 0
DWIDTH 8 0
BBX 6 10 1 0
BITMAP
18
18
38
28
48
88
fc
08
08
08
ENDCHAR
STARTCHAR five
ENCODING 53
SWIDTH 602 0
DWIDTH 8 0
BBX 5 10 2 0
BITMAP
f8
80
80
80
e0
18
08
08
18
f0
ENDCHAR
STARTCHAR six
ENCODING 54
SWIDTH 602 0
DWIDTH 8 0
BBX 7 10 1 0
BITMAP
3c
44
40
80
bc
c6
82
82
46
3c
ENDCHAR
STARTCHAR seven
ENCODING 55
SWIDTH 602 0
DWIDTH 8 0
BBX 6 10 1 0
BITMAP
fc
0c
08
18
10
10
20
20
40
40
ENDCHAR
STARTCHAR eight
ENCODING 56
SWIDTH 602 0
DWIDTH 8 0
BBX 6 10 1 0
BITMAP
78
84
84
cc
70
58
84
84
c4
78
ENDCHAR
STARTCHAR nine
ENCODING 57
SWIDTH 602 0
DWIDTH 8 0
BBX 7 10 1 0
BITMAP
78
c4
82
82
c6
7a
02
04
04
78
ENDCHAR
STARTCHAR colon
ENCODING 58
SWIDTH 602 0
DWIDTH 8 0
BBX 1 7 4 0
BITMAP
80
00
00
00
00
00
80
ENDCHAR
STARTCHAR semicolon
ENCODING 59
SWIDTH 602 0
DWIDTH 8 0
BBX 1 10 4 -3
BITMAP
80
00
00
00
00
80
80
80
80
80
ENDCHAR
STARTCHAR less
ENCODING 60
SWIDTH 602 0
DWIDTH 8 0
BBX 7 7 1 0
BITMAP
02
0c
30
c0
30
0c
02
ENDCHAR
STARTCHAR equal
ENCODING 61
SWIDTH 602 0
DWIDTH 8 0
BBX 7 3 1 2
BITMAP
fe
00
fe
ENDCHAR
STARTCHAR greater
ENCODING 62
SWIDTH 602 0
DWIDTH 8 0
BBX 7 7 1 0
BITMAP
80
60
18
06
18
60
80
ENDCHAR
STARTCHAR question
ENCODING 63
SWIDTH 602 0
DWIDTH 8 0
BBX 6 10 1 0
BITMAP
f8
84
04
0c
18
20
20
00
00
10
ENDCHAR
STARTCHAR at
ENCODING 64
SWIDTH 602 0
DWIDTH 8 0
BBX 9 10 0 0
BITMAP
1e00
6100
4700
8900
9100
9300
9700
cd80
6200
3e00
ENDCHAR
STARTCHAR A
ENCODING 65
SWIDTH 602 0
DWIDTH 8 0
BBX 8 10 0 0
BITMAP
18
18
18
24
24
24
7e
42
42
81
ENDCHAR
STARTCHAR B
ENCODING 66
SWIDTH 602 0
DWIDTH 8 0
BBX 6 10 1 0
BITMAP
f8
84
84
8c
f8
88
84
84
84
f8
ENDCHAR
STARTCHAR C
ENCODING 67
SWIDTH 602 0
DWIDTH 8 0
BBX 7 10 1 0
BITMAP
3e
62
40
80
80
80
80
40
60
3e
ENDCHAR
STARTCHAR D
ENCODING 68
SWIDTH 602 0
DWIDTH 8 0
BBX 7 10 1 0
BITMAP
f8
84
82
82
82
82
82
82
84
f8
ENDCHAR
STARTCHAR E
ENCODING 69
SWIDTH 602 0
DWIDTH 8 0
BBX 6 10 2 0
BITMAP
fc
80
80
80
f8
80
80
80
80
fc
ENDCHAR
STARTCHAR F
ENCODING 70
SWIDTH 602 0
DWIDTH 8 0
BBX 6 10 2 0
BITMAP
fc
80
80
80
80
f8
80
80
80
80
ENDCHAR
STARTCHAR G
ENCODING 71
SWIDTH 602 0
DWIDTH 8 0
BBX 7 10 1 0
BITMAP
3e
62
40
80
80
82
82
42
62
3e
ENDCHAR
STARTCHAR H
ENCODING 72
SWIDTH 602 0
DWIDTH 8 0
BBX 6 10 1 0
BITMAP
84
84
84
84
fc
84
84
84
84
84
ENDCHAR
STARTCHAR I
ENCODING 73
SWIDTH 602 0
DWIDTH 8 0
BBX 5 10 2 0
BITMAP
f8
20
20
20
20
20
20
20
20
f8
ENDCHAR
STARTCHAR J
ENCODING 74
SWIDTH 602 0
DWIDTH 8 0
BBX 5 10 1 0
BITMAP
78
08
08
08
08
08
08
08
08
f0
ENDCHAR
STARTCHAR K
ENCODING 75
SWIDTH 602 0
DWIDTH 8 0
BBX 7 10 1 0
BITMAP
84
88
90
a0
e0
a0
b0
98
8c
86
ENDCHAR
STARTCHAR L
ENCODING 76
SWIDTH 602 0
DWIDTH 8 0
BBX 6 10 2 0
BITMAP
80
80
80
80
80
80
80
80
80
fc
ENDCHAR
STARTCHAR M
ENCODING 77
SWIDTH 602 0
DWIDTH 8 0
BBX 7 10 1 0
BITMAP
c6
c6
c6
c6
aa
aa
aa
aa
92
82
ENDCHAR
STARTCHAR N
ENCODING 78
SWIDTH 602 0
DWIDTH 8 0
BBX 6 10 1 0
BITMAP
84
c4
c4
a4
a4
94
94
8c
8c
84
ENDCHAR
STARTCHAR O
ENCODING 79
SWIDTH 602 0
DWIDTH 8 0
BBX 8 10 0 0
BITMAP
3c
42
c3
81
81
81
81
c3
42
3c
ENDCHAR
STARTCHAR P
ENCODING 80
SWIDTH 602 0
DWIDTH 8 0
BBX 6 10 2 0
BITMAP
f8
84
84
84
88
f0
80
80
80
80
ENDCHAR
STARTCHAR Q
ENCODING 81
SWIDTH 602 0
DWIDTH 8 0
BBX 9 13 0 -3
BITMAP
3c00
4200
c200
8100
8100
8100
8100
c300
4300
3e00
0400
0300
0180
ENDCHAR
STARTCHAR R
ENCODING 82
SWIDTH 602 0
DWIDTH 8 0
BBX 7 10 1 0
BITMAP
f8
84
84
84
88
f0
98
88
84
86
ENDCHAR
STARTCHAR S
ENCODING 83
SWIDTH 602 0
DWIDTH 8 0
BBX 6 10 1 0
BITMAP
78
84
80
c0
60
18
04
04
8c
f8
ENDCHAR
STARTCHAR T
ENCODING 84
SWIDTH 602 0
DWIDTH 8 0
BBX 7 10 1 0
BITMAP
fe
10
10
10
10
10
10
10
10
10
ENDCHAR
STARTCHAR U
ENCODING 85
SWIDTH 602 0
DWIDTH 8 0
BBX 6 10 1 0
BITMAP
84
84
84
84
84
84
84
84
84
78
ENDCHAR
STARTCHAR V
ENCODING 86
SWIDTH 602 0
DWIDTH 8 0
BBX 8 10 0 0
BITMAP
81
42
42
42
24
24
24
18
18
18
ENDCHAR
STARTCHAR W
ENCODING 87
SWIDTH 602 0
DWIDTH 8 0
BBX 8 10 0 0
BITMAP
81
91
91
aa
aa
6a
6a
6a
44
44
ENDCHAR
STARTCHAR X
ENCODING 88
SWIDTH 602 0
DWIDTH 8 0
BBX 8 10 0 0
BITMAP
c3
62
24
18
18
18
3c
24
42
c3
ENDCHAR
STARTCHAR Y
ENCODING 89
SWIDTH 602 0
DWIDTH 8 0
BBX 8 10 0 0
BITMAP
c3
42
24
24
18
10
10
10
10
10
ENDCHAR
STARTCHAR Z
ENCODING 90
SWIDTH 602 0
DWIDTH 8 0
BBX 7 10 1 0
BITMAP
fe
04
04
08
10
10
20
40
40
fe
ENDCHAR
STARTCHAR bracketleft
ENCODING 91
SWIDTH 602 0
DWIDTH 8 0
BBX 4 13 3 -3
BITMAP
f0
80
80
80
80
80
80
80
80
80
80
80
f0
ENDCHAR
STARTCHAR backslash
ENCODING 92
SWIDTH 602 0
DWIDTH 8 0
BBX 7 13 1 -3
BITMAP
80
40
40
20
20
10
10
10
08
08
04
04
02
ENDCHAR
STARTCHAR bracketright
ENCODING 93
SWIDTH 602 0
DWIDTH 8 0
BBX 4 13 1 -3
BITMAP
f0
10
10
10
10
10
10
10
10
10
10
10
f0
ENDCHAR
STARTCHAR asciicircum
ENCODING 94
SWIDTH 602 0
DWIDTH 8 0
BBX 7 8 1 2
BITMAP
10
10
38
28
28
44
44
82
ENDCHAR
STARTCHAR underscore
ENCODING 95
SWIDTH 602 0
DWIDTH 8 0
BBX 8 1 0 -2
BITMAP
ff
ENDCHAR
STARTCHAR quoteleft
ENCODING 96
SWIDTH 602 0
DWIDTH 8 0
BBX 2 4 3 6
BITMAP
c0
80
c0
c0
ENDCHAR
STARTCHAR a
ENCODING 97
SWIDTH 602 0
DWIDTH 8 0
BBX 7 7 1 0
BITMAP
7c
44
04
7c
c4
84
7e
ENDCHAR
STARTCHAR b
ENCODING 98
SWIDTH 602 0
DWIDTH 8 0
BBX 6 10 1 0
BITMAP
80
80
80
b8
cc
84
84
84
8c
f8
ENDCHAR
STARTCHAR c
ENCODING 99
SWIDTH 602 0
DWIDTH 8 0
BBX 6 7 1 0
BITMAP
3c
40
80
80
80
40
3c
ENDCHAR
STARTCHAR d
ENCODING 100
SWIDTH 602 0
DWIDTH 8 0
BBX 6 10 1 0
BITMAP
04
04
04
7c
c4
84
84
84
cc
74
ENDCHAR
STARTCHAR e
ENCODING 101
SWIDTH 602 0
DWIDTH 8 0
BBX 6 7 1 0
BITMAP
78
cc
84
fc
80
44
3c
ENDCHAR
STARTCHAR f
ENCODING 102
SWIDTH 602 0
DWIDTH 8 0
BBX 7 11 1 0
BITMAP
1e
20
20
20
fe
20
20
20
20
20
20
ENDCHAR
STARTCHAR g
ENCODING 103
SWIDTH 602 0
DWIDTH 8 0
BBX 7 10 1 -3
BITMAP
3a
46
82
82
82
c6
7a
02
42
7c
ENDCHAR
STARTCHAR h
ENCODING 104
SWIDTH 602 0
DWIDTH 8 0
BBX 6 10 1 0
BITMAP
80
80
80
b8
c4
84
84
84
84
84
ENDCHAR
STARTCHAR i
ENCODING 105
SWIDTH 602 0
DWIDTH 8 0
BBX 4 10 1 0
BITMAP
10
00
00
f0
10
10
10
10
10
10
ENDCHAR
STARTCHAR j
ENCODING 106
SWIDTH 602 0
DWIDTH 8 0
BBX 5 13 1 -3
BITMAP
08
00
00
78
08
08
08
08
08
08
08
08
f0
ENDCHAR
STARTCHAR k
ENCODING 107
SWIDTH 602 0
DWIDTH 8 0
BBX 6 10 2 0
BITMAP
80
80
80
98
90
a0
e0
b0
90
8c
ENDCHAR
STARTCHAR l
ENCODING 108
SWIDTH 602 0
DWIDTH 8 0
BBX 4 10 1 0
BITMAP
f0
10
10
10
10
10
10
10
10
10
ENDCHAR
STARTCHAR m
ENCODING 109
SWIDTH 602 0
DWIDTH 8 0
BBX 7 7 1 0
BITMAP
b6
da
92
92
92
92
92
ENDCHAR
STARTCHAR n
ENCODING 110
SWIDTH 602 0
DWIDTH 8 0
BBX 6 7 1 0
BITMAP
b8
c4
84
84
84
84
84
ENDCHAR
STARTCHAR o
ENCODING 111
SWIDTH 602 0
DWIDTH 8 0
BBX 7 7 1 0
BITMAP
38
44
82
82
82
44
38
ENDCHAR
STARTCHAR p
ENCODING 112
SWIDTH 602 0
DWIDTH 8 0
BBX 6 10 1 -3
BITMAP
b8
cc
84
84
84
8c
f8
80
80
80
ENDCHAR
STARTCHAR q
ENCODING 113
SWIDTH 602 0
DWIDTH 8 0
BBX 6 10 1 -3
BITMAP
7c
c4
84
84
84
cc
74
04
04
04
ENDCHAR
STARTCHAR r
ENCODING 114
SWIDTH 602 0
DWIDTH 8 0
BBX 5 7 2 0
BITMAP
b8
c8
80
80
80
80
80
ENDCHAR
STARTCHAR s
ENCODING 115
SWIDTH 602 0
DWIDTH 8 0
BBX 6 7 1 0
BITMAP
7c
80
c0
78
04
84
f8
ENDCHAR
STARTCHAR t
ENCODING 116
SWIDTH 602 0
DWIDTH 8 0
BBX 6 9 1 0
BITMAP
20
20
fc
20
20
20
20
20
1c
ENDCHAR
STARTCHAR u
ENCODING 117
SWIDTH 602 0
DWIDTH 8 0
BBX 6 7 1 0
BITMAP
84
84
84
84
84
8c
74
ENDCHAR
STARTCHAR v
ENCODING 118
SWIDTH 602 0
DWIDTH 8 0
BBX 8 7 0 0
BITMAP
81
42
42
24
24
18
18
ENDCHAR
STARTCHAR w
ENCODING 119
SWIDTH 602 0
DWIDTH 8 0
BBX 8 7 0 0
BITMAP
81
99
9a
6a
66
66
66
ENDCHAR
STARTCHAR x
ENCODING 120
SWIDTH 602 0
DWIDTH 8 0
BBX 7 7 1 0
BITMAP
c6
6c
28
10
28
4c
c6
ENDCHAR
STARTCHAR y
ENCODING 121
SWIDTH 602 0
DWIDTH 8 0
BBX 7 10 1 -3
BITMAP
82
44
44
2c
28
28
10
10
20
e0
ENDCHAR
STARTCHAR z
ENCODING 122
SWIDTH 602 0
DWIDTH 8 0
BBX 7 7 1 0
BITMAP
fe
04
08
10
20
40
fe
ENDCHAR
STARTCHAR braceleft
ENCODING 123
SWIDTH 602 0
DWIDTH 8 0
BBX 5 13 2 -3
BITMAP
18
20
20
20
20
20
c0
20
20
20
20
20
18
ENDCHAR
STARTCHAR bar
ENCODING 124
SWIDTH 602 0
DWIDTH 8 0
BBX 1 13 4 -3
BITMAP
80
80
80
80
80
80
80
80
80
80
80
80
80
ENDCHAR
STARTCHAR braceright
ENCODING 125
SWIDTH 602 0
DWIDTH 8 0
BBX 5 13 2 -3
BITMAP
c0
20
20
20
20
20
18
20
20
20
20
20
c0
ENDCHAR
STARTCHAR asciitilde
ENCODING 126
SWIDTH 602 0
DWIDTH 8 0
BBX 7 3 1 2
BITMAP
62
92
8c
ENDCHAR
STARTCHAR exclamdown
ENCODING 161
SWIDTH 602 0
DWIDTH 8 0
BBX 1 10 4 -3
BITMAP
80
00
00
80
80
80
80
80
80
80
ENDCHAR
STARTCHAR cent
ENCODING 162
SWIDTH 602 0
DWIDTH 8 0
BBX 6 10 1 0
BITMAP
10
3c
54
90
90
90
90
54
3c
10
ENDCHAR
STARTCHAR sterling
ENCODING 163
SWIDTH 602 0
DWIDTH 8 0
BBX 5 10 2 0
BITMAP
38
40
40
40
e0
40
40
40
80
f8
ENDCHAR
STARTCHAR currency
ENCODING 164
SWIDTH 602 0
DWIDTH 8 0
BBX 7 8 1 1
BITMAP
82
c6
7c
44
44
44
7c
82
ENDCHAR
STARTCHAR yen
ENCODING 165
SWIDTH 602 0
DWIDTH 8 0
BBX 7 10 1 0
BITMAP
c6
44
28
10
7c
10
7c
10
10
10
ENDCHAR
STARTCHAR brokenbar
ENCODING 166
SWIDTH 602 0
DWIDTH 8 0
BBX 1 13 4 -3
BITMAP
80
80
80
80
80
00
00
00
80
80
80
80
80
ENDCHAR
STARTCHAR section
ENCODING 167
SWIDTH 602 0
DWIDTH 8 0
BBX 5 13 2 -3
BITMAP
78
80
80
c0
70
98
88
c8
30
18
08
88
f0
ENDCHAR
STARTCHAR dieresis
ENCODING 168
SWIDTH 602 0
DWIDTH 8 0
BBX 4 1 2 9
BITMAP
90
ENDCHAR
STARTCHAR copyright
ENCODING 169
SWIDTH 602 0
DWIDTH 8 0
BBX 8 10 0 0
BITMAP
3c
42
9d
b1
a1
a1
b1
9d
42
3c
ENDCHAR
STARTCHAR ordfeminine
ENCODING 170
SWIDTH 602 0
DWIDTH 8 0
BBX 5 5 2 5
BITMAP
f0
90
70
90
f8
ENDCHAR
STARTCHAR guillemotleft
ENCODING 171
SWIDTH 602 0
DWIDTH 8 0
BBX 7 7 1 0
BITMAP
12
24
48
d8
48
24
12
ENDCHAR
STARTCHAR logicalnot
ENCODING 172
SWIDTH 602 0
DWIDTH 8 0
BBX 7 3 1 2
BITMAP
fe
02
02
ENDCHAR
STARTCHAR hyphen
ENCODING 173
SWIDTH 602 0
DWIDTH 8 0
BBX 6 1 1 3
BITMAP
fc
ENDCHAR
STARTCHAR registered
ENCODING 174
SWIDTH 602 0
DWIDTH 8 0
BBX 7 6 1 4
BITMAP
38
fe
aa
ba
ee
38
ENDCHAR
STARTCHAR macron
ENCODING 175
SWIDTH 602 0
DWIDTH 8 0
BBX 4 1 2 9
BITMAP
f0
ENDCHAR
STARTCHAR degree
ENCODING 176
SWIDTH 602 0
DWIDTH 8 0
BBX 3 2 4 8
BITMAP
e0
60
ENDCHAR
STARTCHAR plusminus
ENCODING 177
SWIDTH 602 0
DWIDTH 8 0
BBX 7 7 1 0
BITMAP
10
10
fe
10
10
00
fe
ENDCHAR
STARTCHAR twosuperior
ENCODING 178
SWIDTH 602 0
DWIDTH 8 0
BBX 3 5 -1 5
BITMAP
e0
20
60
40
e0
ENDCHAR
STARTCHAR threesuperior
ENCODING 179
SWIDTH 602 0
DWIDTH 8 0
BBX 3 5 -1 5
BITMAP
e0
20
c0
20
e0
ENDCHAR
STARTCHAR acute
ENCODING 180
SWIDTH 602 0
DWIDTH 8 0
BBX 3 1 3 9
BITMAP
e0
ENDCHAR
STARTCHAR mu
ENCODING 181
SWIDTH 602 0
DWIDTH 8 0
BBX 6 10 1 -3
BITMAP
84
84
84
84
84
8c
f4
80
80
80
ENDCHAR
STARTCHAR paragraph
ENCODING 182
SWIDTH 602 0
DWIDTH 8 0
BBX 6 13 1 -3
BITMAP
7c
f4
f4
f4
74
14
14
14
14
14
14
14
14
ENDCHAR
STARTCHAR periodcentered
ENCODING 183
SWIDTH 602 0
DWIDTH 8 0
BBX 2 1 3 3
BITMAP
c0
ENDCHAR
STARTCHAR cedilla
ENCODING 184
SWIDTH 602 0
DWIDTH 8 0
BBX 2 3 3 -3
BITMAP
80
40
c0
ENDCHAR
STARTCHAR onesuperior
ENCODING 185
SWIDTH 602 0
DWIDTH 8 0
BBX 3 5 -1 5
BITMAP
c0
40
40
40
e0
ENDCHAR
STARTCHAR ordmasculine
ENCODING 186
SWIDTH 602 0
DWIDTH 8 0
BBX 5 5 2 5
BITMAP
70
88
88
88
70
ENDCHAR
STARTCHAR guillemotright
ENCODING 187
SWIDTH 602 0
DWIDTH 8 0
BBX 7 7 1 0
BITMAP
90
48
24
36
64
48
90
ENDCHAR
STARTCHAR onequarter
ENCODING 188
SWIDTH 602 0
DWIDTH 8 0
BBX 8 10 2 0
BITMAP
c3
42
44
4c
e8
12
36
2a
4f
82
ENDCHAR
STARTCHAR onehalf
ENCODING 189
SWIDTH 602 0
DWIDTH 8 0
BBX 8 10 2 0
BITMAP
c3
42
44
4c
e8
17
31
23
42
87
ENDCHAR
STARTCHAR threequarters
ENCODING 190
SWIDTH 602 0
DWIDTH 8 0
BBX 8 10 2 0
BITMAP
e3
22
c4
2c
e8
12
36
2a
4f
82
ENDCHAR
STARTCHAR questiondown
ENCODING 191
SWIDTH 602 0
DWIDTH 8 0
BBX 6 10 1 -3
BITMAP
20
00
00
10
30
60
c0
80
c4
7c
ENDCHAR
STARTCHAR Agrave
ENCODING 192
SWIDTH 602 0
DWIDTH 8 0
BBX 8 12 0 0
BITMAP
1c
00
18
18
18
24
24
24
7e
42
42
81
ENDCHAR
STARTCHAR Aacute
ENCODING 193
SWIDTH 602 0
DWIDTH 8 0
BBX 8 12 0 0
BITMAP
38
00
18
18
18
24
24
24
7e
42
42
81
ENDCHAR
STARTCHAR Acircumflex
ENCODING 194
SWIDTH 602 0
DWIDTH 8 0
BBX 8 12 0 0
BITMAP
3e
00
18
18
18
24
24
24
7e
42
42
81
ENDCHAR
STARTCHAR Atilde
ENCODING 195
SWIDTH 602 0
DWIDTH 8 0
BBX 8 12 0 0
BITMAP
3e
00
18
18
18
24
24
24
7e
42
42
81
ENDCHAR
STARTCHAR Adieresis
ENCODING 196
SWIDTH 602 0
DWIDTH 8 0
BBX 8 12 0 0
BITMAP
24
00
18
18
18
24
24
24
7e
42
42
81
ENDCHAR
STARTCHAR Aring
ENCODING 197
SWIDTH 602 0
DWIDTH 8 0
BBX 8 13 0 0
BITMAP
18
18
00
18
18
18
24
24
24
7e
42
42
81
ENDCHAR
STARTCHAR AE
ENCODING 198
SWIDTH 602 0
DWIDTH 8 0
BBX 8 10 0 0
BITMAP
0f
18
18
18
28
2e
68
78
48
8f
ENDCHAR
STARTCHAR Ccedilla
ENCODING 199
SWIDTH 602 0
DWIDTH 8 0
BBX 7 13 1 -3
BITMAP
3e
62
40
80
80
80
80
40
60
3e
10
08
18
ENDCHAR
STARTCHAR Egrave
ENCODING 200
SWIDTH 602 0
DWIDTH 8 0
BBX 6 12 2 0
BITMAP
70
00
fc
80
80
80
f8
80
80
80
80
fc
ENDCHAR
STARTCHAR Eacute
ENCODING 201
SWIDTH 602 0
DWIDTH 8 0
BBX 6 12 2 0
BITMAP
70
00
fc
80
80
80
f8
80
80
80
80
fc
ENDCHAR
STARTCHAR Ecircumflex
ENCODING 202
SWIDTH 602 0
DWIDTH 8 0
BBX 6 12 2 0
BITMAP
7c
00
fc
80
80
80
f8
80
80
80
80
fc
ENDCHAR
STARTCHAR Edieresis
ENCODING 203
SWIDTH 602 0
DWIDTH 8 0
BBX 6 12 2 0
BITMAP
48
00
fc
80
80
80
f8
80
80
80
80
fc
ENDCHAR
STARTCHAR Igrave
ENCODING 204
SWIDTH 602 0
DWIDTH 8 0
BBX 5 12 2 0
BITMAP
70
00
f8
20
20
20
20
20
20
20
20
f8
ENDCHAR
STARTCHAR Iacute
ENCODING 205
SWIDTH 602 0
DWIDTH 8 0
BBX 5 12 2 0
BITMAP
70
00
f8
20
20
20
20
20
20
20
20
f8
ENDCHAR
STARTCHAR Icircumflex
ENCODING 206
SWIDTH 602 0
DWIDTH 8 0
BBX 5 12 2 0
BITMAP
f8
00
f8
20
20
20
20
20
20
20
20
f8
ENDCHAR
STARTCHAR Idieresis
ENCODING 207
SWIDTH 602 0
DWIDTH 8 0
BBX 5 12 2 0
BITMAP
90
00
f8
20
20
20
20
20
20
20
20
f8
ENDCHAR
STARTCHAR Eth
ENCODING 208
SWIDTH 602 0
DWIDTH 8 0
BBX 8 10 0 0
BITMAP
7c
42
41
41
f1
41
41
41
42
7c
ENDCHAR
STARTCHAR Ntilde
ENCODING 209
SWIDTH 602 0
DWIDTH 8 0
BBX 6 12 1 0
BITMAP
7c
00
84
c4
c4
a4
a4
94
94
8c
8c
84
ENDCHAR
STARTCHAR Ograve
ENCODING 210
SWIDTH 602 0
DWIDTH 8 0
BBX 8 12 0 0
BITMAP
1c
00
3c
42
c3
81
81
81
81
c3
42
3c
ENDCHAR
STARTCHAR Oacute
ENCODING 211
SWIDTH 602 0
DWIDTH 8 0
BBX 8 12 0 0
BITMAP
38
00
3c
42
c3
81
81
81
81
c3
42
3c
ENDCHAR
STARTCHAR Ocircumflex
ENCODING 212
SWIDTH 602 0
DWIDTH 8 0
BBX 8 12 0 0
BITMAP
3e
00
3c
42
c3
81
81
81
81
c3
42
3c
ENDCHAR
STARTCHAR Otilde
ENCODING 213
SWIDTH 602 0
DWIDTH 8 0
BBX 8 12 0 0
BITMAP
3e
00
3c
42
c3
81
81
81
81
c3
42
3c
ENDCHAR
STARTCHAR Odieresis
ENCODING 214
SWIDTH 602 0
DWIDTH 8 0
BBX 8 12 0 0
BITMAP
24
00
3c
42
c3
81
81
81
81
c3
42
3c
ENDCHAR
STARTCHAR multiply
ENCODING 215
SWIDTH 602 0
DWIDTH 8 0
BBX 7 7 1 0
BITMAP
10
00
00
fe
00
00
10
ENDCHAR
STARTCHAR Oslash
ENCODING 216
SWIDTH 602 0
DWIDTH 8 0
BBX 8 10 0 0
BITMAP
3f
43
c7
85
89
91
a1
e3
c2
fc
ENDCHAR
STARTCHAR Ugrave
ENCODING 217
SWIDTH 602 0
DWIDTH 8 0
BBX 6 12 1 0
BITMAP
38
00
84
84
84
84
84
84
84
84
84
78
ENDCHAR
STARTCHAR Uacute
ENCODING 218
SWIDTH 602 0
DWIDTH 8 0
BBX 6 12 1 0
BITMAP
70
00
84
84
84
84
84
84
84
84
84
78
ENDCHAR
STARTCHAR Ucircumflex
ENCODING 219
SWIDTH 602 0
DWIDTH 8 0
BBX 6 12 1 0
BITMAP
f8
00
84
84
84
84
84
84
84
84
84
78
ENDCHAR
STARTCHAR Udieresis
ENCODING 220
SWIDTH 602 0
DWIDTH 8 0
BBX 6 12 1 0
BITMAP
48
00
84
84
84
84
84
84
84
84
84
78
ENDCHAR
STARTCHAR Yacute
ENCODING 221
SWIDTH 602 0
DWIDTH 8 0
BBX 8 12 0 0
BITMAP
38
00
c3
42
24
24
18
10
10
10
10
10
ENDCHAR
STARTCHAR Thorn
ENCODING 222
SWIDTH 602 0
DWIDTH 8 0
BBX 6 10 2 0
BITMAP
80
80
f8
84
84
84
88
f0
80
80
ENDCHAR
STARTCHAR germandbls
ENCODING 223
SWIDTH 602 0
DWIDTH 8 0
BBX 6 11 2 0
BITMAP
70
88
88
90
a0
a0
90
8c
84
a4
b8
ENDCHAR
STARTCHAR agrave
ENCODING 224
SWIDTH 602 0
DWIDTH 8 0
BBX 7 9 1 0
BITMAP
38
00
7c
44
04
7c
c4
84
7e
ENDCHAR
STARTCHAR aacute
ENCODING 225
SWIDTH 602 0
DWIDTH 8 0
BBX 7 9 1 0
BITMAP
38
00
7c
44
04
7c
c4
84
7e
ENDCHAR
STARTCHAR acircumflex
ENCODING 226
SWIDTH 602 0
DWIDTH 8 0
BBX 7 9 1 0
BITMAP
7c
00
7c
44
04
7c
c4
84
7e
ENDCHAR
STARTCHAR atilde
ENCODING 227
SWIDTH 602 0
DWIDTH 8 0
BBX 7 9 1 0
BITMAP
7c
00
7c
44
04
7c
c4
84
7e
ENDCHAR
STARTCHAR adieresis
ENCODING 228
SWIDTH 602 0
DWIDTH 8 0
BBX 7 9 1 0
BITMAP
48
00
7c
44
04
7c
c4
84
7e
ENDCHAR
STARTCHAR aring
ENCODING 229
SWIDTH 602 0
DWIDTH 8 0
BBX 7 10 1 0
BITMAP
30
30
00
7c
44
04
7c
c4
84
7e
ENDCHAR
STARTCHAR ae
ENCODING 230
SWIDTH 602 0
DWIDTH 8 0
BBX 8 7 0 0
BITMAP
76
09
09
7f
88
88
7f
ENDCHAR
STARTCHAR ccedilla
ENCODING 231
SWIDTH 602 0
DWIDTH 8 0
BBX 6 10 1 -3
BITMAP
3c
40
80
80
80
40
3c
20
10
30
ENDCHAR
STARTCHAR egrave
ENCODING 232
SWIDTH 602 0
DWIDTH 8 0
BBX 6 9 1 0
BITMAP
38
00
78
cc
84
fc
80
44
3c
ENDCHAR
STARTCHAR eacute
ENCODING 233
SWIDTH 602 0
DWIDTH 8 0
BBX 6 9 1 0
BITMAP
70
00
78
cc
84
fc
80
44
3c
ENDCHAR
STARTCHAR ecircumflex
ENCODING 234
SWIDTH 602 0
DWIDTH 8 0
BBX 6 9 1 0
BITMAP
f8
00
78
cc
84
fc
80
44
3c
ENDCHAR
STARTCHAR edieresis
ENCODING 235
SWIDTH 602 0
DWIDTH 8 0
BBX 6 9 1 0
BITMAP
48
00
78
cc
84
fc
80
44
3c
ENDCHAR
STARTCHAR igrave
ENCODING 236
SWIDTH 602 0
DWIDTH 8 0
BBX 5 9 1 0
BITMAP
38
00
f0
10
10
10
10
10
10
ENDCHAR
STARTCHAR iacute
ENCODING 237
SWIDTH 602 0
DWIDTH 8 0
BBX 4 9 1 0
BITMAP
70
00
f0
10
10
10
10
10
10
ENDCHAR
STARTCHAR icircumflex
ENCODING 238
SWIDTH 602 0
DWIDTH 8 0
BBX 5 9 1 0
BITMAP
f8
00
f0
10
10
10
10
10
10
ENDCHAR
STARTCHAR idieresis
ENCODING 239
SWIDTH 602 0
DWIDTH 8 0
BBX 5 9 1 0
BITMAP
48
00
f0
10
10
10
10
10
10
ENDCHAR
STARTCHAR eth
ENCODING 240
SWIDTH 602 0
DWIDTH 8 0
BBX 7 10 1 0
BITMAP
f8
78
8c
3c
46
82
82
82
44
38
ENDCHAR
STARTCHAR ntilde
ENCODING 241
SWIDTH 602 0
DWIDTH 8 0
BBX 6 9 1 0
BITMAP
f8
00
b8
c4
84
84
84
84
84
ENDCHAR
STARTCHAR ograve
ENCODING 242
SWIDTH 602 0
DWIDTH 8 0
BBX 7 9 1 0
BITMAP
38
00
38
44
82
82
82
44
38
ENDCHAR
STARTCHAR oacute
ENCODING 243
SWIDTH 602 0
DWIDTH 8 0
BBX 7 9 1 0
BITMAP
38
00
38
44
82
82
82
44
38
ENDCHAR
STARTCHAR ocircumflex
ENCODING 244
SWIDTH 602 0
DWIDTH 8 0
BBX 7 9 1 0
BITMAP
7c
00
38
44
82
82
82
44
38
ENDCHAR
STARTCHAR otilde
ENCODING 245
SWIDTH 602 0
DWIDTH 8 0
BBX 7 9 1 0
BITMAP
7c
00
38
44
82
82
82
44
38
ENDCHAR
STARTCHAR odieresis
ENCODING 246
SWIDTH 602 0
DWIDTH 8 0
BBX 7 9 1 0
BITMAP
48
00
38
44
82
82
82
44
38
ENDCHAR
STARTCHAR divide
ENCODING 247
SWIDTH 602 0
DWIDTH 8 0
BBX 7 7 1 0
BITMAP
82
44
28
10
28
44
82
ENDCHAR
STARTCHAR oslash
ENCODING 248
SWIDTH 602 0
DWIDTH 8 0
BBX 7 7 1 0
BITMAP
3e
46
8a
92
a2
c4
f8
ENDCHAR
STARTCHAR ugrave
ENCODING 249
SWIDTH 602 0
DWIDTH 8 0
BBX 6 9 1 0
BITMAP
38
00
84
84
84
84
84
8c
74
ENDCHAR
STARTCHAR uacute
ENCODING 250
SWIDTH 602 0
DWIDTH 8 0
BBX 6 9 1 0
BITMAP
70
00
84
84
84
84
84
8c
74
ENDCHAR
STARTCHAR ucircumflex
ENCODING 251
SWIDTH 602 0
DWIDTH 8 0
BBX 6 9 1 0
BITMAP
7c
00
84
84
84
84
84
8c
74
ENDCHAR
STARTCHAR udieresis
ENCODING 252
SWIDTH 602 0
DWIDTH 8 0
BBX 6 9 1 0
BITMAP
48
00
84
84
84
84
84
8c
74
ENDCHAR
STARTCHAR yacute
ENCODING 253
SWIDTH 602 0
DWIDTH 8 0
BBX 7 12 1 -3
BITMAP
38
00
82
44
44
2c
28
28
10
10
20
e0
ENDCHAR
STARTCHAR thorn
ENCODING 254
SWIDTH 602 0
DWIDTH 8 0
BBX 6 13 1 -3
BITMAP
80
80
80
b8
cc
84
84
84
8c
f8
80
80
80
ENDCHAR
STARTCHAR ydieresis
ENCODING 255
SWIDTH 602 0
DWIDTH 8 0
BBX 7 12 1 -3
BITMAP
48
00
82
44
44
2c
28
28
10
10
20
e0
ENDCHAR
ENDFONT
